# xmcd CD database file
#
# Track frame offsets:
#	150
#	11327
#	30298
#	46666
#	62111
#	68041
#	89908
#	109348
#	122796
#	131218
#
# Disc length: 1835 seconds
#
# Revision: 1
# Processed by: cddbd v1.5.2PL0 Copyright (c) Steve Scherf et al.
# Submitted via: CDex 1.70beta2
#
DISCID=8607290a
DTITLE=Trouble Books - The United Colors of Trouble Books
DYEAR=2008
DGENRE=Indie
TTITLE0=Beautiful Thoughts From Spanish and German Soldiers
TTITLE1=Strelka
TTITLE2=Night of the Pelican Street Sweeper
TTITLE3=Shaky Science
TTITLE4=Transient Color Glories
TTITLE5=On and On Submerged Ark
TTITLE6=For All Our Dead Friends
TTITLE7=CFHC
TTITLE8=Abandoned Greenhouse
TTITLE9=Personal Tornados
EXTD=YEAR: 2008
EXTT0=
EXTT1=
EXTT2=
EXTT3=
EXTT4=
EXTT5=
EXTT6=
EXTT7=
EXTT8=
EXTT9=
PLAYORDER=
